<?xml version="1.0" encoding="utf-8"?>
<!-- Generator: Adobe Illustrator 25.0.1, SVG Export Plug-In . SVG Version: 6.00 Build 0)  -->
<svg version="1.1" id="Layer_1" xmlns="http://www.w3.org/2000/svg" xmlns:xlink="http://www.w3.org/1999/xlink" x="0px" y="0px"
	 viewBox="0 0 237.3 303.2" style="enable-background:new 0 0 237.3 303.2;" xml:space="preserve">
<style type="text/css">
	.st0{fill:#FFFFFF;stroke:#2A3741;stroke-miterlimit:10;}
	.st1{fill:none;stroke:#2A3741;stroke-width:4;stroke-miterlimit:10;}
	.st2{fill:#9AB3BF;}
	.st3{fill:#2A3741;}
	.st4{fill-rule:evenodd;clip-rule:evenodd;fill:#2A3741;}
	.st5{fill:none;stroke:#9AB3BF;stroke-width:3;stroke-miterlimit:10;}
</style>
<circle class="st0" cx="117.8" cy="116.5" r="112.8"/>
<circle class="st1" cx="117.6" cy="115.4" r="112.8"/>
<path class="st2" d="M183.2,121.1l6.3,2.6l0.5-1l-6.3-2.6C183.5,120.5,183.4,120.8,183.2,121.1 M166.1,114.1l9.5,3.9
	c0.2-0.3,0.3-0.6,0.5-1l-9.5-3.9C166.5,113.5,166.3,113.8,166.1,114.1z M160,147l6.3,7.9l0.9-0.6l-6.2-7.9
	C160.6,146.6,160.3,146.8,160,147z M148.9,133l6.2,7.8c0.3-0.2,0.6-0.4,0.9-0.6l-6.2-7.8C149.6,132.6,149.2,132.8,148.9,133z
	 M108.1,156.9l-0.8,4.9l1.1,0.2l0.8-4.9C108.9,157,108.5,157,108.1,156.9z M110.8,139.6l-1.5,9.7c0.4,0.1,0.7,0.1,1.1,0.2l1.5-9.7
	C111.6,139.7,111.2,139.6,110.8,139.6z M76.9,142.3l-4.7,5.6l0.9,0.7l4.7-5.5C77.5,142.7,77.2,142.5,76.9,142.3z M88.5,128.5
	l-6.5,7.7c0.3,0.2,0.6,0.5,0.9,0.7l6.5-7.7C89.1,129,88.8,128.8,88.5,128.5z M59.8,69.2l-7.3-3l-0.5,1l7.3,3
	C59.5,69.9,59.7,69.6,59.8,69.2z M76.9,76.3l-9.5-3.9c-0.2,0.3-0.3,0.7-0.4,1l9.5,3.9C76.6,76.9,76.7,76.6,76.9,76.3z M80.4,44.5
	l-8.1-10.3l-0.9,0.6l8.2,10.3C79.8,44.9,80.1,44.7,80.4,44.5z M91.5,58.5l-6.2-7.8c-0.3,0.2-0.6,0.4-0.9,0.7l6.2,7.8
	C90.9,58.9,91.2,58.7,91.5,58.5z M129,31.6l2-12.8l-1.1-0.2l-2,12.8C128.3,31.5,128.6,31.5,129,31.6z M126.3,48.9l1.5-9.7
	c-0.4,0-0.8-0.1-1.1-0.1l-1.5,9.7C125.5,48.8,125.9,48.9,126.3,48.9z M145.5,61l-26,30.8l5.9-37.4c-0.4,0-0.8-0.1-1.1-0.1l-6,38
	L95.1,63c-0.3,0.2-0.6,0.4-0.9,0.7l23,29.2L82.3,78.5c-0.2,0.3-0.3,0.7-0.4,1l35.7,14.7l-25.3,30c0.3,0.2,0.6,0.5,0.8,0.7l24.7-29.2
	l-6.1,38.4c0.4,0.1,0.7,0.2,1.1,0.2l6.2-39.1l26.4,33.4c0.3-0.2,0.6-0.4,0.9-0.6l-25.6-32.4l40,16.4c0.2-0.3,0.3-0.6,0.5-1
	l-41.8-17.2l27.1-32.1C146.2,61.4,145.9,61.2,145.5,61z M155.7,49l-6.5,7.7c0.3,0.2,0.6,0.4,0.9,0.6l6.5-7.7
	C156.3,49.4,156,49.2,155.7,49z M164.4,38.8l-3.5,4.2c0.3,0.2,0.6,0.4,0.9,0.6l3.5-4.1L164.4,38.8z"/>
<path class="st2" d="M143.1,42l6.6-14.2l-1-0.4l-6.6,14.3C142.4,41.7,142.8,41.9,143.1,42 M125.1,151l1.4,11.6l1.1-0.1l-1.4-11.5
	C125.9,151,125.5,151,125.1,151z M94.4,144.9L86,163.1l1,0.4l8.4-18.1C95.1,145.3,94.8,145.1,94.4,144.9z M112.2,46l5.8,47.7
	l-20.7,45c0.3,0.2,0.7,0.3,1,0.5l20-43.3l5.9,48.4c0.4,0,0.8,0,1.1-0.1l-6.2-50.3l21-45.5c-0.4-0.1-0.7-0.2-1.1-0.4L119,91.7
	l-5.6-45.9C113,45.8,112.6,45.9,112.2,46z M109.9,27.2l1.5,11.9c0.4-0.1,0.7-0.1,1.1-0.2L111,27.1L109.9,27.2z"/>
<path class="st2" d="M153,70.4L183.8,49l-0.7-0.9l-30.9,21.5C152.5,69.9,152.8,70.2,153,70.4 M161.9,89.6l26.7-2.9l-0.1-1.1
	l-26.7,2.9C161.8,88.9,161.9,89.2,161.9,89.6z M152.4,119.6l24.9,18.5l0.7-0.8l-24.8-18.5C152.9,119.1,152.7,119.3,152.4,119.6z
	 M133.8,131.1l14,33.4l1.1-0.4l-14-33.3C134.5,130.9,134.1,131,133.8,131.1z M87.3,114.9l-22.1,15.4l0.7,0.9L88,115.8
	c-0.2-0.2-0.3-0.4-0.5-0.7C87.4,115,87.4,115,87.3,114.9z M81.3,97.2l-28.8,3.1l0.1,1.1l28.8-3.1C81.3,98,81.3,97.6,81.3,97.2z
	 M89.6,71.4L55.8,46.2L55.1,47l33.9,25.3C89.2,72,89.4,71.7,89.6,71.4z M146.5,75l2.5-1.8c-0.2-0.3-0.5-0.5-0.7-0.8l-2.5,1.8
	C146,74.4,146.3,74.7,146.5,75z M153.9,90.5l3.1-0.3c-0.1-0.4-0.1-0.7-0.2-1.1l-3.1,0.3C153.8,89.8,153.8,90.1,153.9,90.5z
	 M146.1,114.9l2.5,1.8c0.2-0.3,0.5-0.5,0.7-0.8l-2.5-1.8C146.6,114.3,146.4,114.6,146.1,114.9z M130.8,124l1.2,2.8
	c0.4-0.1,0.7-0.2,1.1-0.3l-1.2-2.8C131.5,123.8,131.1,123.9,130.8,124z M93.9,110.3l-2.5,1.8c0.1,0.2,0.2,0.4,0.3,0.5
	c0.1,0.1,0.2,0.3,0.3,0.4l2.5-1.8c0-0.1-0.1-0.1-0.1-0.2C94.2,110.8,94,110.6,93.9,110.3z M89.3,96.4l-3.1,0.3c0,0.4,0,0.7,0.1,1.1
	l3.1-0.3C89.4,97.1,89.3,96.7,89.3,96.4z M96,76.2l-2.5-1.8c-0.2,0.3-0.5,0.6-0.7,0.9l2.5,1.8C95.5,76.7,95.7,76.4,96,76.2z
	 M108.5,71l8.9,21.1L99.1,78.5c-0.2,0.3-0.5,0.6-0.7,0.9l18.8,14l-24,2.6c0,0.4,0,0.7,0.1,1.1l23.3-2.5l-19.5,13.6
	c0.2,0.3,0.4,0.6,0.6,0.9l20.7-14.5l10.9,26c0.4-0.1,0.7-0.2,1.1-0.3l-10.5-24.8l23.1,17.2c0.3-0.3,0.5-0.5,0.7-0.8l-23.7-17.6
	l29.9-3.2c-0.1-0.4-0.1-0.7-0.2-1.1L120.7,93l22.6-15.8c-0.2-0.3-0.5-0.5-0.8-0.8l-23.7,16.5l-9.4-22.4
	C109.1,70.7,108.8,70.8,108.5,71z M105.8,64.8l1.2,2.8c0.3-0.2,0.7-0.3,1-0.5l-1.2-2.8C106.5,64.4,106.2,64.6,105.8,64.8z
	 M88.4,23.4l15.6,37c0.3-0.2,0.7-0.3,1-0.5L89.5,23L88.4,23.4z"/>
<path class="st2" d="M172.8,74.2l21.1-7.9l-0.4-1l-21.2,7.9C172.5,73.6,172.6,73.9,172.8,74.2 M176.6,102.3l21.8,3l0.2-1.1l-21.8-3
	C176.8,101.6,176.7,102,176.6,102.3z M69.2,111.5l-25.8,9.6l0.4,1l25.8-9.6C69.4,112.2,69.3,111.9,69.2,111.5z M73.5,88l42.9,6
	l-41,15.2c0.1,0.3,0.2,0.7,0.4,1l42.9-15.9l51.3,7.1c0.1-0.4,0.1-0.7,0.2-1.1l-49.3-6.9l45.7-17c-0.2-0.3-0.3-0.6-0.5-1l-47.5,17.6
	l-44.9-6.2C73.6,87.3,73.6,87.6,73.5,88z M38.7,83.1l28.1,3.9c0.1-0.4,0.1-0.7,0.2-1.1l-28.2-3.9L38.7,83.1z"/>
<rect x="57" y="116" class="st3" width="122.3" height="3.4"/>
<rect x="116.3" y="117.1" class="st3" width="3.6" height="84.3"/>
<path class="st4" d="M118.1,113.9c2.2,0,4.1,1.7,4.1,3.8c0,2.1-1.8,3.8-4.1,3.8c-2.2,0-4.1-1.7-4.1-3.8
	C114.1,115.6,115.9,113.9,118.1,113.9"/>
<g id="XMLID_1_">
	<g>
		<polygon class="st3" points="186.3,112.4 180.7,117.7 186.3,123 179.6,123 176.4,123 172.6,119.3 174.4,117.4 176,117.4 
			181.3,112.4 		"/>
		<polygon class="st3" points="179.6,112.4 174.4,117.4 172.6,119.3 170.8,117.7 171.1,117.4 169.5,117.4 167.9,115.7 171.3,112.4 
			173,112.4 179.6,112.4 		"/>
		<polygon class="st3" points="164.4,117.4 166,117.4 167.9,115.7 169.5,117.4 169.2,117.7 174.8,123 173,123 166.4,123 
			160.8,117.7 166.4,112.4 169.7,112.4 		"/>
		<path class="st3" d="M154.9,163.2c0.8,0.2,1.6,0.5,2.4,0.7c0.8,0.2,1.7,0.5,2.6,0.7c0.3,0.1,0.5,0.3,0.5,0.6
			c-0.1,0.8-0.2,1.6-0.3,2.4c0,0.3-0.2,0.4-0.5,0.3c-0.8-0.3-1.7-0.6-2.5-0.8c-0.8-0.3-1.6-0.5-2.4-0.8c0,0.7-0.1,1.4-0.1,2
			c0.5,0.2,1,0.4,1.6,0.6c0.5,0.2,1.1,0.4,1.6,0.6c0.6,0.2,1.1,0.4,1.7,0.6c0.6,0.2,1.1,0.4,1.7,0.6c0.5,0.2,0.7,0.5,0.6,0.9
			c-0.2,0.6-0.4,1.3-0.6,1.9c-0.1,0.2-0.2,0.3-0.5,0.2c-0.6-0.2-1.2-0.5-1.8-0.7c-0.6-0.2-1.2-0.5-1.8-0.7c-0.6-0.2-1.1-0.4-1.7-0.6
			s-1.1-0.4-1.6-0.6c-0.5-0.2-0.9-0.3-1.4-0.5c-0.4-0.2-0.9-0.3-1.3-0.5c-0.4-0.1-0.6-0.4-0.5-0.8c0-0.9,0-1.8,0-2.8
			c0-0.4,0-0.7,0-1.1l0.4,0.1l1.2-3.2l-1.6-0.5c0-0.4,0-0.8,0-1.3c0-1,0.1-2.1,0.1-3.2c0-0.4,0.2-0.6,0.7-0.5
			c0.6,0.1,1.2,0.3,1.8,0.4c0.6,0.1,1.3,0.3,1.9,0.4c0.5,0.1,1.1,0.2,1.6,0.4s1.1,0.2,1.6,0.4c0.5,0.1,1.1,0.3,1.7,0.4
			c0.6,0.1,1.1,0.3,1.7,0.4c0.3,0.1,0.5,0.3,0.5,0.6c0,0.8-0.1,1.7-0.1,2.5c0,0.5-0.3,0.7-0.8,0.5c-0.6-0.1-1.1-0.3-1.6-0.4
			c-0.6-0.1-1.1-0.3-1.6-0.4c-0.5-0.1-1-0.3-1.5-0.4c-0.5-0.1-1-0.3-1.5-0.4C155,161.8,154.9,162.5,154.9,163.2z"/>
		<path class="st3" d="M152.3,162.3l-1.2,3.2l-0.4-0.1c0-0.6,0-1.2,0-1.8c0-0.6,0-1.2,0-1.8L152.3,162.3z"/>
		<path class="st3" d="M86.4,212.4c-0.9,0-1.6-0.7-1.6-1.6v-4.1c0-0.9,0.7-1.6,1.6-1.6h10.6c0.1,0.5,0.5,0.8,1,0.8h18.4
			c0.6,0.2,1.2,0.3,1.8,0.3c0.6,0,1.3-0.1,1.8-0.3h18.4c0.5,0,0.9-0.4,1-0.8h0h10.6c0.9,0,1.6,0.7,1.6,1.6v4.1
			c0,0.9-0.7,1.6-1.6,1.6H86.4z"/>
		<path class="st3" d="M151,144.2c-0.4,0.3-0.9,0.5-1.3,0.8c-0.2,0.2-0.4,0.2-0.6,0.1c-0.5-0.4-0.9-0.8-1.5-1.3
			c-0.5-0.4-1.1-0.9-1.6-1.4c0,0.8,0,1.6,0,2.3c0,0.8,0,1.5,0,2.3c0,0.2-0.1,0.3-0.3,0.4c-0.7,0.4-1.4,0.9-2.2,1.4
			c-0.2,0.1-0.3,0.1-0.3-0.1c0-0.7,0-1.4,0-2.1c0-0.7,0-1.3,0-2l0.6-0.2l-0.6-1.5l0,0c0-0.2,0-0.4,0-0.6c0-0.7,0-1.5,0-2.2
			c0-0.2,0.1-0.4,0.4-0.5c0.6-0.3,1.2-0.5,1.8-0.8c0.3-0.1,0.6-0.2,0.8,0c0.6,0.6,1.2,1.3,1.7,1.8c0.5,0.6,1,1.1,1.5,1.6
			c0-0.8,0-1.5,0-2.3c0-0.8,0-1.5,0.1-2.3c0-0.2,0.1-0.3,0.2-0.3c0.5-0.2,1.1-0.4,1.6-0.5c0.1-0.1,0.2,0,0.2,0.2
			c0,0.6,0,1.1-0.1,1.7c0,0.6,0,1.1,0,1.7c0,0.6,0,1.1-0.1,1.7c0,0.6,0,1.1-0.1,1.7C151.2,144,151.1,144.1,151,144.2z"/>
		<path class="st3" d="M143.1,144.6c0-0.5,0-1,0-1.6l0,0l0.6,1.5l-0.6,0.2C143.1,144.7,143.1,144.7,143.1,144.6z"/>
		<path class="st3" d="M143.1,144.6c0,0.1,0,0.1,0,0.1l-21.3,7.6l-3.7-1.2l24.9-8.1C143.1,143.6,143.1,144.1,143.1,144.6z"/>
		<path class="st3" d="M139.3,205.2h-17.9c1-0.9,1.7-2.1,1.7-3.5c0-0.1,0-0.2,0-0.3h15.3c0.5,0,1,0.4,1,1v2.6
			C139.3,205.1,139.3,205.1,139.3,205.2L139.3,205.2z"/>
		<path class="st3" d="M121.4,205.2h17.9c-0.1,0.5-0.5,0.8-1,0.8h-18.4C120.5,205.8,121,205.5,121.4,205.2z"/>
		<path class="st3" d="M123.1,201.4c0,0.1,0,0.2,0,0.3c0,1.4-0.7,2.7-1.7,3.5h-6.6c-1.1-0.9-1.7-2.1-1.7-3.5c0-0.1,0-0.2,0-0.3
			H123.1z"/>
		<path class="st3" d="M123.1,201.4h-9.9c0.1-2.5,2.3-4.4,5-4.4C120.8,196.9,123,198.9,123.1,201.4z"/>
		<path class="st3" d="M123,155.4c0.1,0.3,0.1,0.6,0.1,1c0,2.6-2.2,4.7-5,4.7c-2.8,0-5-2.1-5-4.7c0-0.3,0-0.7,0.1-1l4.9-1.8
			L123,155.4z"/>
		<path class="st3" d="M123,155.4l-4.9-1.8l2.9-1.1C122.1,153.3,122.8,154.3,123,155.4z"/>
		<path class="st3" d="M121.8,152.4l28.9,9.4c0,0.6,0,1.2,0,1.8c0,0.6,0,1.2,0,1.8l-27.7-9.9c-0.3-1.1-1-2.1-1.9-2.8L121.8,152.4z"
			/>
		<path class="st3" d="M114.9,205.2h6.6c-0.4,0.4-0.9,0.6-1.5,0.8h-3.6C115.8,205.8,115.3,205.5,114.9,205.2z"/>
		<path class="st3" d="M121.1,152.6l-2.9,1.1l-2.9-1.1c0.8-0.6,1.8-0.9,2.9-0.9C119.2,151.7,120.3,152.1,121.1,152.6z"/>
		<path class="st3" d="M116.3,206h3.6c-0.6,0.2-1.2,0.3-1.8,0.3C117.5,206.3,116.9,206.2,116.3,206z"/>
		<path class="st3" d="M118.1,151.2l-3.7,1.2l-19.6-7c0.2-0.5,0.4-1.1,0.5-1.6L118.1,151.2z"/>
		<path class="st3" d="M118.1,153.7l-4.9,1.8c0.3-1.1,1-2.1,1.9-2.8L118.1,153.7z"/>
		<path class="st3" d="M118.1,151.2l3.7,1.2l-0.7,0.3c-0.8-0.6-1.8-0.9-2.9-0.9c-1.1,0-2.1,0.3-2.9,0.9l-0.7-0.3L118.1,151.2z"/>
		<path class="st3" d="M116.3,206H97.9c-0.5,0-0.9-0.4-1-0.8h17.9C115.3,205.5,115.8,205.8,116.3,206z"/>
		<path class="st3" d="M114.9,205.2H96.9c0-0.1,0-0.1,0-0.2v-2.6c0-0.5,0.4-1,1-1h15.3c0,0.1,0,0.2,0,0.3
			C113.2,203.1,113.8,204.3,114.9,205.2z"/>
		<path class="st3" d="M120.6,108.5c0-2.4-0.8-4.8-1.7-7.1c-0.3,0.4-0.7,0.9-0.9,1.3c-1.5,2.5-1.8,5.5-0.8,8.2c0.4,1.1,1,2.1,1.8,3
			C120.1,112.4,120.7,110.5,120.6,108.5z M112.3,113.9c1.4-1.6,2-3.7,2-5.8c0-3.3-1.2-6.6-3.2-9.4c-1-0.4-1.9-0.9-2.8-1.4
			c-3.2-1.8-6-4.3-7.9-7.4c-2-3.2-2.8-7-2-10.7c0.4-1.9,1.3-3.6,2.5-5.1c1.2-1.6,2.7-3,3.9-4.7c1.2-1.5,2.1-3.3,2.3-5.2
			c0-0.3,0-0.6,0-0.9c-0.3,0.2-0.8,0.4-1.2,0.5c-2,0.5-4-0.2-5.7-1.2c-0.8-0.4-1.6-0.9-2-1.7c-0.5-0.8-0.4-1.8,0-2.6
			c0.4-1.1,1.5-2.3,1.8-3.5c-1.3-1-2.9-1.4-4.6-1.3c0,0-0.1,0.1-0.1,0.1c-0.1,0.1-0.3,0.1-0.4,0c0-0.1-0.1-0.2,0-0.3
			c0.1-0.1,0.2-0.2,0.3-0.4c0.9-1.3,2-2.4,3.3-3.3c0.7-0.5,1.4-1,2.2-1.4c0,0,0.1,0,0.1-0.1c-0.5-1.3-0.5-2.8,0.8-3.8
			c0.6-0.5,1.5-0.8,2.3-0.6c0.6-1.2,1.8-2,3.3-1.9c0.7,0,1.3,0.3,1.8,0.7c0.6-0.5,1.4-0.7,2.2-0.5c1.2,0.2,2.1,1.3,2.2,2.4
			c0,0.6-0.2,1.2-0.5,1.8c-0.3,0.6-0.6,1.2-0.4,1.8c0.3,1.2,1.8,1.2,2.8,2.3c0.3,0.4,0.7,0.6,1,1.1c0.1,0.2,0.4,0.5,0.6,0.8
			c0,0,0.1,0.1,0.1,0.1c1.7,1.9,2.3,4.4,2.2,6.8c0,3.2-1.2,6.3-1.7,9.4c-0.3,2.6-0.1,5.5,1.6,7.7c3.1,4,11.8,1.4,12.4-2
			c0.3-1.6,0.5-3.7,0.3-5.3c-0.2-1.5-0.4-3-0.3-4.5c0.3-5.4,3-10.8,7.5-14.2c4.4-3.4,10.3-5.1,16-4.4c0.1,0,0.2,0,0.3,0
			c0.5,0.1,0.5,0.8,0,0.9c-0.1,0-0.1,0-0.1,0c-1.3,0.3-2.2,1.1-3,2c-0.9,1.2-1.4,2.7-1.9,4.1c4.4-2.1,9.8-2.4,14.4-0.8
			c0.1,0,0.1,0,0.2,0.1c0.4,0.1,0.5,0.7,0,0.8c-0.1,0-0.2,0-0.2,0.1c-1.6,0.3-3,1.2-4.3,2.2c-0.8,0.6-1.4,1.4-2.1,2.1
			c0.5,0.1,0.9,0.2,1.4,0.3c3.2,0.8,6.1,2.7,7.9,5.4c0.9,1.3,1.5,2.8,1.9,4.3c0.3,1.5,0.5,3.1,0.2,4.6c0,0,0,0.1,0,0.1
			c-0.1,0.6-1.3,0.5-1.2-0.2c0.1-1.6-0.7-3.1-2.2-3.9c-2.1-1.3-4.4-0.5-6.5,0.5c1.1,1.1,2.1,2.3,2.9,3.7c1.1,2,1.5,4.2,1.6,6.4
			c0,0.3,0.1,0.5,0,0.8c0,0,0,0,0,0c0,0.1,0,0.1,0,0.2c-0.1,0.3-0.5,0.5-0.8,0.4c-0.3-0.1-0.4-0.3-0.4-0.6h0
			c0.2-1.5-1.4-2.6-2.9-2.7c-1-0.1-2,0.1-2.9,0.4c2.6,3.8,3.5,8.5,2.3,12.9c0,0,0,0.1,0,0.1c-0.1,0.5-0.9,0.4-1-0.1c0,0,0-0.1,0-0.1
			c-0.1-1.5-0.4-3.1-1.6-4.2c-1.2-1.1-3-0.9-4.6-0.7c0,0-0.1,0-0.1,0c1,3.2,0.9,6.7-0.2,9.8c-0.2,0.5-0.9,0.3-0.8-0.2
			c0.3-1.4-0.5-2.8-1.5-3.8c-0.5-0.4-1-0.8-1.5-1.1c0.3,1.7,0.4,3.4,0.3,5.1c0,0.4-0.7,0.5-0.8,0.1c0,0,0-0.1,0-0.1
			c-0.4-1.4-1.6-2.7-3.1-3.3c-1.7-0.6-3.4,0-5.1,0.3c-1.3,0.3-2.6,0.3-3.8,0c-0.5,1.1-1.2,2.1-2.1,2.9c-1.7,1.7-3.9,3-5.9,4.4
			c-2,1.5-3.7,3.3-4.4,5.7c-0.7,2.3-0.4,4.7,0.7,6.8c0.5,1,1.3,1.8,2.1,2.6c0.2,0.2,0.4,0.3,0.6,0.5c0.3,0.2,0.5,0.4,0.8,0.5
			c0,0,0,0,0,0c-0.2,0-0.3,0-0.5,0c-0.3,0-0.5,0-0.7,0c-1.7,0.1-3.4,0.1-5.2,0.1c-0.4,0-0.9,0-1.3,0c-0.9,0-1.8,0-2.6,0.1
			c-0.5,0-0.9,0-1.4,0c-2,0-3.9,0.1-5.9,0.1c-0.4,0-0.8,0-1.3,0c0.3-0.2,0.5-0.3,0.8-0.5C110.7,115.4,111.6,114.7,112.3,113.9z"/>
		<path class="st3" d="M92.8,143.9l0.3-0.9l2.3,0.7c-0.2,0.5-0.4,1-0.5,1.6l-2.3-0.8L92.8,143.9z"/>
		<path class="st3" d="M94.4,139.4c0.1-0.1,0.2-0.2,0.3-0.1c0.6,0.2,1.2,0.3,1.8,0.5c0.2,0,0.3,0.2,0.2,0.3
			c-0.2,0.6-0.4,1.1-0.6,1.7c-0.2,0.6-0.4,1.2-0.6,1.8c0,0.1-0.1,0.1-0.1,0.2l-2.3-0.7l-0.3,0.9l0,0c0.3-0.8,0.5-1.6,0.8-2.3
			C93.9,140.8,94.1,140.1,94.4,139.4z"/>
		<path class="st3" d="M88.7,164.2l-3.6,1.3l0-0.1l-1.2-3.1l0.4-0.1c0.3,0,0.7,0,1.1,0c0.9,0,1.8,0.1,2.4,0.6
			C88.3,163.1,88.6,163.5,88.7,164.2z"/>
		<path class="st3" d="M87.6,139.8c0.1,0.8,0.3,1.7,0.4,2.6c0.3-0.7,0.6-1.4,0.9-2.2c0.3-0.7,0.6-1.4,0.9-2.1c0-0.1,0.1-0.2,0.3-0.1
			c0.4,0.1,0.8,0.2,1.3,0.3c0.1,0,0.2,0.1,0.3,0.3c0.1,0.4,0.2,0.8,0.3,1.3c0.1,0.4,0.2,0.9,0.3,1.3c0.1,0.4,0.2,0.9,0.3,1.3
			c0.1,0.5,0.2,0.9,0.3,1.4l0,0l-0.3,0.6l2.3,0.8c0,0,0,0,0,0c-0.2,0.6-0.4,1.3-0.7,1.9c-0.1,0.2-0.2,0.2-0.4,0.2
			c-0.6-0.2-1.3-0.4-1.9-0.6c-0.2-0.1-0.3-0.2-0.3-0.4c-0.2-0.9-0.4-1.8-0.5-2.6c-0.2-0.8-0.3-1.7-0.5-2.5c-0.3,0.7-0.5,1.4-0.8,2.1
			c-0.3,0.7-0.6,1.4-0.8,2.1c-0.1,0.2-0.2,0.2-0.4,0.2c-0.6-0.2-1.1-0.4-1.7-0.6c-0.2-0.1-0.3-0.2-0.3-0.4c-0.1-0.7-0.2-1.4-0.3-2
			c-0.1-0.7-0.2-1.3-0.3-1.9c-0.1-0.6-0.2-1.2-0.3-1.8c-0.1-0.6-0.2-1.2-0.3-1.8c0-0.2,0.1-0.2,0.2-0.2c0.5,0.1,1,0.1,1.5,0.2
			c0.1,0,0.2,0.1,0.2,0.3C87.3,138.1,87.5,138.9,87.6,139.8z"/>
		<path class="st3" d="M84.3,162.2l3.1-1l27-8.8l0.7,0.3c-1,0.7-1.7,1.7-1.9,2.8l-24.5,8.8c-0.1-0.7-0.4-1.2-0.9-1.5
			c-0.6-0.4-1.5-0.5-2.4-0.6C85.1,162.2,84.7,162.2,84.3,162.2z"/>
		<path class="st3" d="M88.8,165.1c-0.1,1.2-0.7,2.4-1.8,3.5c-0.5,0.5-1.2,1.1-1.9,1.5c-0.8,0.5-1.6,0.9-2.6,1.2
			c-1,0.4-2,0.7-2.8,0.9c-0.9,0.2-1.8,0.3-2.5,0.3c-0.3,0-0.5-0.1-0.5-0.4c0-0.8,0-1.6,0.1-2.4c0-0.4,0.3-0.7,0.9-0.7
			c0.8,0,1.6-0.1,2.4-0.2c0.8-0.1,1.6-0.3,2.5-0.6c1.5-0.5,1.9-1.2,2-1.7c0-0.3-0.2-0.5-0.5-0.6l1.1-0.4l0,0.1l3.6-1.3
			C88.8,164.5,88.8,164.7,88.8,165.1z"/>
		<path class="st3" d="M83.4,165.8c-0.7,0-1.6,0.1-2.6,0.2c-1,0-1.9-0.1-2.7-0.5c-0.8-0.4-1.3-1.3-1.3-2.7c0-1.4,0.7-2.7,1.8-3.7
			c0.6-0.5,1.3-1,2.1-1.4c0.8-0.4,1.6-0.7,2.5-1c1.1-0.3,2-0.5,2.8-0.6c0.8-0.1,1.4,0,2.1,0.1c0.3,0,0.5,0.2,0.4,0.6
			c-0.3,0.8-0.6,1.5-0.8,2.3c-0.1,0.3-0.4,0.5-0.7,0.6c-0.2,0-0.3,0.1-0.5,0c-0.4,0-0.8,0-1.3,0c-0.5,0.1-1.1,0.2-2,0.5
			c-0.8,0.3-1.5,0.6-1.5,1.3c0,0.5,0.5,0.6,1.2,0.7c0.4,0,0.9,0,1.4,0l-0.4,0.1l1.2,3.1l-1.1,0.4C83.9,165.8,83.7,165.8,83.4,165.8z
			"/>
		<path class="st3" d="M51.6,116.9l9.1-3.3c1.3-0.4,3.9-0.2,5.8,0.5l3.3,1.2c3.8,1.3,4.9,3.2,2.5,4l-7,2.5c-1.3,0.4-3.9,0.2-5.8-0.5
			l-6.5-2.3C50.9,118.3,50.3,117.3,51.6,116.9z"/>
	</g>
	<g>
	</g>
</g>
<circle class="st5" cx="117.6" cy="115.4" r="104.9"/>
</svg>
