<?xml version="1.0" encoding="utf-8"?>
<!-- Generator: Adobe Illustrator 25.2.1, SVG Export Plug-In . SVG Version: 6.00 Build 0)  -->
<svg version="1.1" id="Layer_1" xmlns="http://www.w3.org/2000/svg" xmlns:xlink="http://www.w3.org/1999/xlink" x="0px" y="0px"
	 viewBox="0 0 360 360" style="enable-background:new 0 0 360 360;" xml:space="preserve">
<style type="text/css">
	.st0{fill:#FFFFFF;}
	.st1{fill:#497939;}
	.st2{fill:#0F1031;}
	.st3{fill:#666666;}
	.st4{fill:url(#SVGID_1_);}
	.st5{fill:url(#SVGID_2_);}
	.st6{fill:url(#SVGID_3_);}
	.st7{fill:url(#SVGID_4_);}
</style>
<g>
	<g>
		<circle class="st0" cx="180.1" cy="179.9" r="114.4"/>
		<path class="st1" d="M231.9,252.8c-4.8,3.4-10,6.4-15.6,8.9c-11.5,5.1-23.5,7.5-35.3,7.6c-7,0.1-13.9-0.7-20.6-2.2
			c-8.5-1.9-16.6-5.1-24.2-9.3c-6-3.4-11.6-7.5-16.8-12.2c-8.7-8-15.9-17.9-21-29.4c-5.1-11.5-7.5-23.5-7.6-35.3
			c-0.1-7,0.7-13.9,2.2-20.6c1.9-8.5,5.1-16.6,9.3-24.2c3.4-6,7.5-11.6,12.2-16.8c1-1.1,2-2.1,3-3.1l-7.1-27.2
			c-7.2,5.5-13.6,11.7-19.2,18.6L57,90.2L84,117.5c-8.7,13.4-14.5,28.4-17,44.1l-38.3,2.1l37,10.2c-0.7,13.2,0.9,26.6,4.9,39.8
			l-70.4,46l81.3-21.2c7,11.8,15.9,22,26.1,30.4L90.4,303l27.3-26.9c13.4,8.7,28.4,14.5,44.1,17l2.1,38.3l10.2-37
			c13.2,0.7,26.6-0.9,39.8-4.9l46,70.4L231.9,252.8z"/>
		<path class="st2" d="M289.6,146.2l70.4-46l-81.3,21.2c-7-11.8-15.9-22-26.1-30.4l17.3-34.2l-27.3,26.9
			c-13.4-8.7-28.4-14.5-44.1-17l-2.1-38.3l-10.2,37c-13.2-0.7-26.6,0.9-39.8,4.9L100.4,0l21.2,81.3c0,0,0,0,0,0l6.7,25.7
			c4.8-3.4,10-6.4,15.6-8.9c11.5-5.1,23.5-7.5,35.3-7.6c7-0.1,13.9,0.7,20.6,2.2c8.5,1.9,16.6,5.1,24.2,9.3
			c6,3.4,11.6,7.5,16.8,12.2c8.7,8,15.9,17.9,21,29.4c5.1,11.5,7.5,23.5,7.6,35.3c0.1,7-0.7,13.9-2.2,20.6
			c-1.9,8.5-5.1,16.6-9.3,24.2c-3.4,6-7.5,11.6-12.2,16.8c-1,1.1-2,2.1-3,3.1l7.1,27.2c7.2-5.5,13.6-11.7,19.2-18.6l34.2,17.3
			l-26.9-27.3c8.7-13.4,14.5-28.4,17-44.1l38.3-2.1l-37-10.2C295.3,172.8,293.7,159.3,289.6,146.2z"/>
	</g>
	<g>
		<path class="st3" d="M204.1,189l56.9-8.3l-57.1-9.8l15.4-13.4l-24.1,7.2l9.1-25.5l-0.3,0.3l0.3-0.5l-15.5,16.7L180.6,99l-9.6,56
			l-15-16.2l0.3,0.5l-0.3-0.3l9.2,25.8l-25.9-9.2l0.3,0.3l-0.5-0.3l16.6,15.5l-56.3,9.7L155,189l-16.3,15.2l0.5-0.3l-0.3,0.3
			l26.2-9.3l-7.4,24.8l13.3-15.4l9.7,56.5l8.3-56.9l13.5,15.6l-7.4-24.5l24.4,7.3L204.1,189z M213.8,198.8l-17-8.8l4.8-0.7
			L213.8,198.8z M179.9,188.3c-1.5,0-2.9-0.4-4.1-1c-2.5-1.5-4.1-4.2-4.1-7.3c0-3.4,2-6.4,5-7.8c1-0.4,2.1-0.7,3.3-0.7
			c4.1,0,7.5,2.9,8.4,6.7c0.1,0.5,0.1,1,0.1,1.5C188.4,184.5,184.6,188.3,179.9,188.3z M201.4,170.4l-4.5-0.8l16.8-8.7L201.4,170.4z
			 M201.1,144.6l-11,20l-0.8-5.3L201.1,144.6z M170.3,158.5l-0.8,4.8l-10.4-18.9L170.3,158.5z M144.5,158.9l19.6,10.8l-5,0.9
			L144.5,158.9z M158.7,189.5l5.1,0.7l-19.5,10.7L158.7,189.5z M161.2,213.9l8.6-16.7l0.8,4.5L161.2,213.9z M189.4,201.2l0.7-4.8
			l8.9,17.3L189.4,201.2z"/>
		<linearGradient id="SVGID_1_" gradientUnits="userSpaceOnUse" x1="170.974" y1="139.8508" x2="180.0934" y2="139.8508">
			<stop  offset="0" style="stop-color:#D1D3D4"/>
			<stop  offset="0.1426" style="stop-color:#CBCCCE"/>
			<stop  offset="1" style="stop-color:#A7A9AC"/>
		</linearGradient>
		<path class="st4" d="M180.1,164.1c0,0-5.8-0.3-9.1,3.4l9.1-55.4V164.1z"/>
		
			<linearGradient id="SVGID_2_" gradientUnits="userSpaceOnUse" x1="425.5377" y1="570.2646" x2="434.6577" y2="570.2646" gradientTransform="matrix(-1.130000e-02 0.9999 -0.9999 -1.130000e-02 796.9838 -247.8508)">
			<stop  offset="0" style="stop-color:#D1D3D4"/>
			<stop  offset="0.1426" style="stop-color:#CBCCCE"/>
			<stop  offset="1" style="stop-color:#A7A9AC"/>
		</linearGradient>
		<path class="st5" d="M197.6,180c0,0,0.4-5.8-3.3-9.2l55.3,9.7L197.6,180z"/>
		
			<linearGradient id="SVGID_3_" gradientUnits="userSpaceOnUse" x1="886.6275" y1="433.4054" x2="895.7472" y2="433.4054" gradientTransform="matrix(-0.9996 2.880000e-02 -2.880000e-02 -0.9996 1087.8235 628.8099)">
			<stop  offset="0" style="stop-color:#D1D3D4"/>
			<stop  offset="0.1426" style="stop-color:#CBCCCE"/>
			<stop  offset="1" style="stop-color:#A7A9AC"/>
		</linearGradient>
		<path class="st6" d="M179.3,197.1c0,0,5.8,0.1,9-3.7l-7.5,55.6L179.3,197.1z"/>
		
			<linearGradient id="SVGID_4_" gradientUnits="userSpaceOnUse" x1="762.5031" y1="2.0423" x2="771.6218" y2="2.0423" gradientTransform="matrix(-2.380000e-02 -0.9997 0.9997 -2.380000e-02 154.6011 951.5735)">
			<stop  offset="0" style="stop-color:#D1D3D4"/>
			<stop  offset="0.1426" style="stop-color:#CBCCCE"/>
			<stop  offset="1" style="stop-color:#A7A9AC"/>
		</linearGradient>
		<path class="st7" d="M162.5,179.6c0,0-0.2,5.8,3.7,9l-55.6-7.8L162.5,179.6z"/>
	</g>
</g>
</svg>
