<?xml version="1.0" encoding="utf-8"?>
<!-- Generator: Adobe Illustrator 25.2.1, SVG Export Plug-In . SVG Version: 6.00 Build 0)  -->
<svg version="1.1" id="Layer_1" xmlns="http://www.w3.org/2000/svg" xmlns:xlink="http://www.w3.org/1999/xlink" x="0px" y="0px"
	 viewBox="0 0 432 432" style="enable-background:new 0 0 432 432;" xml:space="preserve">
<style type="text/css">
	.st0{fill:none;}
	.st1{fill:#A2C063;}
	.st2{font-family:'BodoniMT-Italic';}
	.st3{font-size:230px;}
	.st4{fill:#010101;}
	.st5{font-size:21px;}
	.st6{letter-spacing:54;}
</style>
<rect x="305.9" y="292.1" class="st0" width="216.8" height="193.6"/>
<text transform="matrix(1 0 0 1 305.9417 444.3913)" class="st1 st2 st3">”</text>
<rect x="-18.4" y="88.2" class="st0" width="283.2" height="173.2"/>
<text transform="matrix(1 0 0 1 -18.3652 240.5024)" class="st1 st2 st3">“</text>
<rect x="71.3" y="139.7" class="st0" width="330.7" height="176.3"/>
<text transform="matrix(1 0 0 1 71.3768 153.606)" class="st4 st2 st5">I believe wherever dreams dwell, the </text>
<text transform="matrix(1 0 0 1 71.3768 178.806)" class="st4 st2 st5">heart calls it home. So may you untan</text>
<text transform="matrix(1 0 0 1 385.3768 178.806)" class="st4 st2 st5">-</text>
<text transform="matrix(1 0 0 1 71.3768 204.006)" class="st4 st2 st5">gle yourself from the twist of melancholy </text>
<text transform="matrix(1 0 0 1 71.3768 229.206)" class="st4 st2 st5">and ley your thoughts carry you back to </text>
<text transform="matrix(1 0 0 1 71.3768 254.406)" class="st4 st2 st5">the birthplace of your truth.</text>
<text transform="matrix(1 0 0 1 71.3768 304.806)" class="st4 st2 st5 st6">   </text>
<text transform="matrix(1 0 0 1 253.8768 304.806)" class="st4 st2 st5">–Dodinsky</text>
</svg>
